%TF.GenerationSoftware,KiCad,Pcbnew,9.0.6*%
%TF.CreationDate,2025-11-16T14:41:23+11:00*%
%TF.ProjectId,TaikoPcb,5461696b-6f50-4636-922e-6b696361645f,rev?*%
%TF.SameCoordinates,Original*%
%TF.FileFunction,Legend,Bot*%
%TF.FilePolarity,Positive*%
%FSLAX46Y46*%
G04 Gerber Fmt 4.6, Leading zero omitted, Abs format (unit mm)*
G04 Created by KiCad (PCBNEW 9.0.6) date 2025-11-16 14:41:23*
%MOMM*%
%LPD*%
G01*
G04 APERTURE LIST*
%ADD10C,0.200000*%
G04 APERTURE END LIST*
D10*
X167628570Y-75700552D02*
X167390475Y-76367219D01*
X167390475Y-76367219D02*
X167152380Y-75700552D01*
X166247618Y-76367219D02*
X166819046Y-76367219D01*
X166533332Y-76367219D02*
X166533332Y-75367219D01*
X166533332Y-75367219D02*
X166628570Y-75510076D01*
X166628570Y-75510076D02*
X166723808Y-75605314D01*
X166723808Y-75605314D02*
X166819046Y-75652933D01*
X165819046Y-76271980D02*
X165771427Y-76319600D01*
X165771427Y-76319600D02*
X165819046Y-76367219D01*
X165819046Y-76367219D02*
X165866665Y-76319600D01*
X165866665Y-76319600D02*
X165819046Y-76271980D01*
X165819046Y-76271980D02*
X165819046Y-76367219D01*
X165152380Y-75367219D02*
X165057142Y-75367219D01*
X165057142Y-75367219D02*
X164961904Y-75414838D01*
X164961904Y-75414838D02*
X164914285Y-75462457D01*
X164914285Y-75462457D02*
X164866666Y-75557695D01*
X164866666Y-75557695D02*
X164819047Y-75748171D01*
X164819047Y-75748171D02*
X164819047Y-75986266D01*
X164819047Y-75986266D02*
X164866666Y-76176742D01*
X164866666Y-76176742D02*
X164914285Y-76271980D01*
X164914285Y-76271980D02*
X164961904Y-76319600D01*
X164961904Y-76319600D02*
X165057142Y-76367219D01*
X165057142Y-76367219D02*
X165152380Y-76367219D01*
X165152380Y-76367219D02*
X165247618Y-76319600D01*
X165247618Y-76319600D02*
X165295237Y-76271980D01*
X165295237Y-76271980D02*
X165342856Y-76176742D01*
X165342856Y-76176742D02*
X165390475Y-75986266D01*
X165390475Y-75986266D02*
X165390475Y-75748171D01*
X165390475Y-75748171D02*
X165342856Y-75557695D01*
X165342856Y-75557695D02*
X165295237Y-75462457D01*
X165295237Y-75462457D02*
X165247618Y-75414838D01*
X165247618Y-75414838D02*
X165152380Y-75367219D01*
X168142856Y-68623521D02*
X167809523Y-68623521D01*
X167666666Y-69147331D02*
X168142856Y-69147331D01*
X168142856Y-69147331D02*
X168142856Y-68147331D01*
X168142856Y-68147331D02*
X167666666Y-68147331D01*
X167285713Y-69099712D02*
X167142856Y-69147331D01*
X167142856Y-69147331D02*
X166904761Y-69147331D01*
X166904761Y-69147331D02*
X166809523Y-69099712D01*
X166809523Y-69099712D02*
X166761904Y-69052092D01*
X166761904Y-69052092D02*
X166714285Y-68956854D01*
X166714285Y-68956854D02*
X166714285Y-68861616D01*
X166714285Y-68861616D02*
X166761904Y-68766378D01*
X166761904Y-68766378D02*
X166809523Y-68718759D01*
X166809523Y-68718759D02*
X166904761Y-68671140D01*
X166904761Y-68671140D02*
X167095237Y-68623521D01*
X167095237Y-68623521D02*
X167190475Y-68575902D01*
X167190475Y-68575902D02*
X167238094Y-68528283D01*
X167238094Y-68528283D02*
X167285713Y-68433045D01*
X167285713Y-68433045D02*
X167285713Y-68337807D01*
X167285713Y-68337807D02*
X167238094Y-68242569D01*
X167238094Y-68242569D02*
X167190475Y-68194950D01*
X167190475Y-68194950D02*
X167095237Y-68147331D01*
X167095237Y-68147331D02*
X166857142Y-68147331D01*
X166857142Y-68147331D02*
X166714285Y-68194950D01*
X166285713Y-69147331D02*
X166285713Y-68147331D01*
X166285713Y-68147331D02*
X165904761Y-68147331D01*
X165904761Y-68147331D02*
X165809523Y-68194950D01*
X165809523Y-68194950D02*
X165761904Y-68242569D01*
X165761904Y-68242569D02*
X165714285Y-68337807D01*
X165714285Y-68337807D02*
X165714285Y-68480664D01*
X165714285Y-68480664D02*
X165761904Y-68575902D01*
X165761904Y-68575902D02*
X165809523Y-68623521D01*
X165809523Y-68623521D02*
X165904761Y-68671140D01*
X165904761Y-68671140D02*
X166285713Y-68671140D01*
X165380951Y-68147331D02*
X164761904Y-68147331D01*
X164761904Y-68147331D02*
X165095237Y-68528283D01*
X165095237Y-68528283D02*
X164952380Y-68528283D01*
X164952380Y-68528283D02*
X164857142Y-68575902D01*
X164857142Y-68575902D02*
X164809523Y-68623521D01*
X164809523Y-68623521D02*
X164761904Y-68718759D01*
X164761904Y-68718759D02*
X164761904Y-68956854D01*
X164761904Y-68956854D02*
X164809523Y-69052092D01*
X164809523Y-69052092D02*
X164857142Y-69099712D01*
X164857142Y-69099712D02*
X164952380Y-69147331D01*
X164952380Y-69147331D02*
X165238094Y-69147331D01*
X165238094Y-69147331D02*
X165333332Y-69099712D01*
X165333332Y-69099712D02*
X165380951Y-69052092D01*
X164380951Y-68242569D02*
X164333332Y-68194950D01*
X164333332Y-68194950D02*
X164238094Y-68147331D01*
X164238094Y-68147331D02*
X163999999Y-68147331D01*
X163999999Y-68147331D02*
X163904761Y-68194950D01*
X163904761Y-68194950D02*
X163857142Y-68242569D01*
X163857142Y-68242569D02*
X163809523Y-68337807D01*
X163809523Y-68337807D02*
X163809523Y-68433045D01*
X163809523Y-68433045D02*
X163857142Y-68575902D01*
X163857142Y-68575902D02*
X164428570Y-69147331D01*
X164428570Y-69147331D02*
X163809523Y-69147331D01*
X166761904Y-70709656D02*
X166619047Y-70757275D01*
X166619047Y-70757275D02*
X166380952Y-70757275D01*
X166380952Y-70757275D02*
X166285714Y-70709656D01*
X166285714Y-70709656D02*
X166238095Y-70662036D01*
X166238095Y-70662036D02*
X166190476Y-70566798D01*
X166190476Y-70566798D02*
X166190476Y-70471560D01*
X166190476Y-70471560D02*
X166238095Y-70376322D01*
X166238095Y-70376322D02*
X166285714Y-70328703D01*
X166285714Y-70328703D02*
X166380952Y-70281084D01*
X166380952Y-70281084D02*
X166571428Y-70233465D01*
X166571428Y-70233465D02*
X166666666Y-70185846D01*
X166666666Y-70185846D02*
X166714285Y-70138227D01*
X166714285Y-70138227D02*
X166761904Y-70042989D01*
X166761904Y-70042989D02*
X166761904Y-69947751D01*
X166761904Y-69947751D02*
X166714285Y-69852513D01*
X166714285Y-69852513D02*
X166666666Y-69804894D01*
X166666666Y-69804894D02*
X166571428Y-69757275D01*
X166571428Y-69757275D02*
X166333333Y-69757275D01*
X166333333Y-69757275D02*
X166190476Y-69804894D01*
X165857142Y-69757275D02*
X165238095Y-69757275D01*
X165238095Y-69757275D02*
X165571428Y-70138227D01*
X165571428Y-70138227D02*
X165428571Y-70138227D01*
X165428571Y-70138227D02*
X165333333Y-70185846D01*
X165333333Y-70185846D02*
X165285714Y-70233465D01*
X165285714Y-70233465D02*
X165238095Y-70328703D01*
X165238095Y-70328703D02*
X165238095Y-70566798D01*
X165238095Y-70566798D02*
X165285714Y-70662036D01*
X165285714Y-70662036D02*
X165333333Y-70709656D01*
X165333333Y-70709656D02*
X165428571Y-70757275D01*
X165428571Y-70757275D02*
X165714285Y-70757275D01*
X165714285Y-70757275D02*
X165809523Y-70709656D01*
X165809523Y-70709656D02*
X165857142Y-70662036D01*
X169428570Y-72319600D02*
X169285713Y-72367219D01*
X169285713Y-72367219D02*
X169047618Y-72367219D01*
X169047618Y-72367219D02*
X168952380Y-72319600D01*
X168952380Y-72319600D02*
X168904761Y-72271980D01*
X168904761Y-72271980D02*
X168857142Y-72176742D01*
X168857142Y-72176742D02*
X168857142Y-72081504D01*
X168857142Y-72081504D02*
X168904761Y-71986266D01*
X168904761Y-71986266D02*
X168952380Y-71938647D01*
X168952380Y-71938647D02*
X169047618Y-71891028D01*
X169047618Y-71891028D02*
X169238094Y-71843409D01*
X169238094Y-71843409D02*
X169333332Y-71795790D01*
X169333332Y-71795790D02*
X169380951Y-71748171D01*
X169380951Y-71748171D02*
X169428570Y-71652933D01*
X169428570Y-71652933D02*
X169428570Y-71557695D01*
X169428570Y-71557695D02*
X169380951Y-71462457D01*
X169380951Y-71462457D02*
X169333332Y-71414838D01*
X169333332Y-71414838D02*
X169238094Y-71367219D01*
X169238094Y-71367219D02*
X168999999Y-71367219D01*
X168999999Y-71367219D02*
X168857142Y-71414838D01*
X167999999Y-71700552D02*
X167999999Y-72367219D01*
X168428570Y-71700552D02*
X168428570Y-72224361D01*
X168428570Y-72224361D02*
X168380951Y-72319600D01*
X168380951Y-72319600D02*
X168285713Y-72367219D01*
X168285713Y-72367219D02*
X168142856Y-72367219D01*
X168142856Y-72367219D02*
X168047618Y-72319600D01*
X168047618Y-72319600D02*
X167999999Y-72271980D01*
X167523808Y-71700552D02*
X167523808Y-72700552D01*
X167523808Y-71748171D02*
X167428570Y-71700552D01*
X167428570Y-71700552D02*
X167238094Y-71700552D01*
X167238094Y-71700552D02*
X167142856Y-71748171D01*
X167142856Y-71748171D02*
X167095237Y-71795790D01*
X167095237Y-71795790D02*
X167047618Y-71891028D01*
X167047618Y-71891028D02*
X167047618Y-72176742D01*
X167047618Y-72176742D02*
X167095237Y-72271980D01*
X167095237Y-72271980D02*
X167142856Y-72319600D01*
X167142856Y-72319600D02*
X167238094Y-72367219D01*
X167238094Y-72367219D02*
X167428570Y-72367219D01*
X167428570Y-72367219D02*
X167523808Y-72319600D01*
X166238094Y-72319600D02*
X166333332Y-72367219D01*
X166333332Y-72367219D02*
X166523808Y-72367219D01*
X166523808Y-72367219D02*
X166619046Y-72319600D01*
X166619046Y-72319600D02*
X166666665Y-72224361D01*
X166666665Y-72224361D02*
X166666665Y-71843409D01*
X166666665Y-71843409D02*
X166619046Y-71748171D01*
X166619046Y-71748171D02*
X166523808Y-71700552D01*
X166523808Y-71700552D02*
X166333332Y-71700552D01*
X166333332Y-71700552D02*
X166238094Y-71748171D01*
X166238094Y-71748171D02*
X166190475Y-71843409D01*
X166190475Y-71843409D02*
X166190475Y-71938647D01*
X166190475Y-71938647D02*
X166666665Y-72033885D01*
X165761903Y-72367219D02*
X165761903Y-71700552D01*
X165761903Y-71891028D02*
X165714284Y-71795790D01*
X165714284Y-71795790D02*
X165666665Y-71748171D01*
X165666665Y-71748171D02*
X165571427Y-71700552D01*
X165571427Y-71700552D02*
X165476189Y-71700552D01*
X165142855Y-72367219D02*
X165142855Y-71367219D01*
X165142855Y-71367219D02*
X164809522Y-72081504D01*
X164809522Y-72081504D02*
X164476189Y-71367219D01*
X164476189Y-71367219D02*
X164476189Y-72367219D01*
X163999998Y-72367219D02*
X163999998Y-71700552D01*
X163999998Y-71367219D02*
X164047617Y-71414838D01*
X164047617Y-71414838D02*
X163999998Y-71462457D01*
X163999998Y-71462457D02*
X163952379Y-71414838D01*
X163952379Y-71414838D02*
X163999998Y-71367219D01*
X163999998Y-71367219D02*
X163999998Y-71462457D01*
X163523808Y-71700552D02*
X163523808Y-72367219D01*
X163523808Y-71795790D02*
X163476189Y-71748171D01*
X163476189Y-71748171D02*
X163380951Y-71700552D01*
X163380951Y-71700552D02*
X163238094Y-71700552D01*
X163238094Y-71700552D02*
X163142856Y-71748171D01*
X163142856Y-71748171D02*
X163095237Y-71843409D01*
X163095237Y-71843409D02*
X163095237Y-72367219D01*
X162619046Y-72367219D02*
X162619046Y-71700552D01*
X162619046Y-71367219D02*
X162666665Y-71414838D01*
X162666665Y-71414838D02*
X162619046Y-71462457D01*
X162619046Y-71462457D02*
X162571427Y-71414838D01*
X162571427Y-71414838D02*
X162619046Y-71367219D01*
X162619046Y-71367219D02*
X162619046Y-71462457D01*
M02*
