%TF.GenerationSoftware,KiCad,Pcbnew,9.0.6*%
%TF.CreationDate,2025-11-16T14:16:20+11:00*%
%TF.ProjectId,TaikoPcb,5461696b-6f50-4636-922e-6b696361645f,rev?*%
%TF.SameCoordinates,Original*%
%TF.FileFunction,Legend,Bot*%
%TF.FilePolarity,Positive*%
%FSLAX46Y46*%
G04 Gerber Fmt 4.6, Leading zero omitted, Abs format (unit mm)*
G04 Created by KiCad (PCBNEW 9.0.6) date 2025-11-16 14:16:20*
%MOMM*%
%LPD*%
G01*
G04 APERTURE LIST*
%ADD10C,0.200000*%
G04 APERTURE END LIST*
D10*
X173632780Y-43844612D02*
X172918495Y-43844612D01*
X172918495Y-43844612D02*
X172775638Y-43892231D01*
X172775638Y-43892231D02*
X172680400Y-43987469D01*
X172680400Y-43987469D02*
X172632780Y-44130326D01*
X172632780Y-44130326D02*
X172632780Y-44225564D01*
X172632780Y-42892231D02*
X172632780Y-43368421D01*
X172632780Y-43368421D02*
X173632780Y-43368421D01*
X172728019Y-41987469D02*
X172680400Y-42035088D01*
X172680400Y-42035088D02*
X172632780Y-42177945D01*
X172632780Y-42177945D02*
X172632780Y-42273183D01*
X172632780Y-42273183D02*
X172680400Y-42416040D01*
X172680400Y-42416040D02*
X172775638Y-42511278D01*
X172775638Y-42511278D02*
X172870876Y-42558897D01*
X172870876Y-42558897D02*
X173061352Y-42606516D01*
X173061352Y-42606516D02*
X173204209Y-42606516D01*
X173204209Y-42606516D02*
X173394685Y-42558897D01*
X173394685Y-42558897D02*
X173489923Y-42511278D01*
X173489923Y-42511278D02*
X173585161Y-42416040D01*
X173585161Y-42416040D02*
X173632780Y-42273183D01*
X173632780Y-42273183D02*
X173632780Y-42177945D01*
X173632780Y-42177945D02*
X173585161Y-42035088D01*
X173585161Y-42035088D02*
X173537542Y-41987469D01*
X173632780Y-41273183D02*
X172918495Y-41273183D01*
X172918495Y-41273183D02*
X172775638Y-41320802D01*
X172775638Y-41320802D02*
X172680400Y-41416040D01*
X172680400Y-41416040D02*
X172632780Y-41558897D01*
X172632780Y-41558897D02*
X172632780Y-41654135D01*
X172632780Y-40320802D02*
X172632780Y-40796992D01*
X172632780Y-40796992D02*
X173632780Y-40796992D01*
X172728019Y-39416040D02*
X172680400Y-39463659D01*
X172680400Y-39463659D02*
X172632780Y-39606516D01*
X172632780Y-39606516D02*
X172632780Y-39701754D01*
X172632780Y-39701754D02*
X172680400Y-39844611D01*
X172680400Y-39844611D02*
X172775638Y-39939849D01*
X172775638Y-39939849D02*
X172870876Y-39987468D01*
X172870876Y-39987468D02*
X173061352Y-40035087D01*
X173061352Y-40035087D02*
X173204209Y-40035087D01*
X173204209Y-40035087D02*
X173394685Y-39987468D01*
X173394685Y-39987468D02*
X173489923Y-39939849D01*
X173489923Y-39939849D02*
X173585161Y-39844611D01*
X173585161Y-39844611D02*
X173632780Y-39701754D01*
X173632780Y-39701754D02*
X173632780Y-39606516D01*
X173632780Y-39606516D02*
X173585161Y-39463659D01*
X173585161Y-39463659D02*
X173537542Y-39416040D01*
X173632780Y-38701754D02*
X172918495Y-38701754D01*
X172918495Y-38701754D02*
X172775638Y-38749373D01*
X172775638Y-38749373D02*
X172680400Y-38844611D01*
X172680400Y-38844611D02*
X172632780Y-38987468D01*
X172632780Y-38987468D02*
X172632780Y-39082706D01*
X172632780Y-37749373D02*
X172632780Y-38225563D01*
X172632780Y-38225563D02*
X173632780Y-38225563D01*
X172728019Y-36844611D02*
X172680400Y-36892230D01*
X172680400Y-36892230D02*
X172632780Y-37035087D01*
X172632780Y-37035087D02*
X172632780Y-37130325D01*
X172632780Y-37130325D02*
X172680400Y-37273182D01*
X172680400Y-37273182D02*
X172775638Y-37368420D01*
X172775638Y-37368420D02*
X172870876Y-37416039D01*
X172870876Y-37416039D02*
X173061352Y-37463658D01*
X173061352Y-37463658D02*
X173204209Y-37463658D01*
X173204209Y-37463658D02*
X173394685Y-37416039D01*
X173394685Y-37416039D02*
X173489923Y-37368420D01*
X173489923Y-37368420D02*
X173585161Y-37273182D01*
X173585161Y-37273182D02*
X173632780Y-37130325D01*
X173632780Y-37130325D02*
X173632780Y-37035087D01*
X173632780Y-37035087D02*
X173585161Y-36892230D01*
X173585161Y-36892230D02*
X173537542Y-36844611D01*
X173632780Y-36130325D02*
X172918495Y-36130325D01*
X172918495Y-36130325D02*
X172775638Y-36177944D01*
X172775638Y-36177944D02*
X172680400Y-36273182D01*
X172680400Y-36273182D02*
X172632780Y-36416039D01*
X172632780Y-36416039D02*
X172632780Y-36511277D01*
X172632780Y-35177944D02*
X172632780Y-35654134D01*
X172632780Y-35654134D02*
X173632780Y-35654134D01*
X172728019Y-34273182D02*
X172680400Y-34320801D01*
X172680400Y-34320801D02*
X172632780Y-34463658D01*
X172632780Y-34463658D02*
X172632780Y-34558896D01*
X172632780Y-34558896D02*
X172680400Y-34701753D01*
X172680400Y-34701753D02*
X172775638Y-34796991D01*
X172775638Y-34796991D02*
X172870876Y-34844610D01*
X172870876Y-34844610D02*
X173061352Y-34892229D01*
X173061352Y-34892229D02*
X173204209Y-34892229D01*
X173204209Y-34892229D02*
X173394685Y-34844610D01*
X173394685Y-34844610D02*
X173489923Y-34796991D01*
X173489923Y-34796991D02*
X173585161Y-34701753D01*
X173585161Y-34701753D02*
X173632780Y-34558896D01*
X173632780Y-34558896D02*
X173632780Y-34463658D01*
X173632780Y-34463658D02*
X173585161Y-34320801D01*
X173585161Y-34320801D02*
X173537542Y-34273182D01*
X168142856Y-68623521D02*
X167809523Y-68623521D01*
X167666666Y-69147331D02*
X168142856Y-69147331D01*
X168142856Y-69147331D02*
X168142856Y-68147331D01*
X168142856Y-68147331D02*
X167666666Y-68147331D01*
X167285713Y-69099712D02*
X167142856Y-69147331D01*
X167142856Y-69147331D02*
X166904761Y-69147331D01*
X166904761Y-69147331D02*
X166809523Y-69099712D01*
X166809523Y-69099712D02*
X166761904Y-69052092D01*
X166761904Y-69052092D02*
X166714285Y-68956854D01*
X166714285Y-68956854D02*
X166714285Y-68861616D01*
X166714285Y-68861616D02*
X166761904Y-68766378D01*
X166761904Y-68766378D02*
X166809523Y-68718759D01*
X166809523Y-68718759D02*
X166904761Y-68671140D01*
X166904761Y-68671140D02*
X167095237Y-68623521D01*
X167095237Y-68623521D02*
X167190475Y-68575902D01*
X167190475Y-68575902D02*
X167238094Y-68528283D01*
X167238094Y-68528283D02*
X167285713Y-68433045D01*
X167285713Y-68433045D02*
X167285713Y-68337807D01*
X167285713Y-68337807D02*
X167238094Y-68242569D01*
X167238094Y-68242569D02*
X167190475Y-68194950D01*
X167190475Y-68194950D02*
X167095237Y-68147331D01*
X167095237Y-68147331D02*
X166857142Y-68147331D01*
X166857142Y-68147331D02*
X166714285Y-68194950D01*
X166285713Y-69147331D02*
X166285713Y-68147331D01*
X166285713Y-68147331D02*
X165904761Y-68147331D01*
X165904761Y-68147331D02*
X165809523Y-68194950D01*
X165809523Y-68194950D02*
X165761904Y-68242569D01*
X165761904Y-68242569D02*
X165714285Y-68337807D01*
X165714285Y-68337807D02*
X165714285Y-68480664D01*
X165714285Y-68480664D02*
X165761904Y-68575902D01*
X165761904Y-68575902D02*
X165809523Y-68623521D01*
X165809523Y-68623521D02*
X165904761Y-68671140D01*
X165904761Y-68671140D02*
X166285713Y-68671140D01*
X165380951Y-68147331D02*
X164761904Y-68147331D01*
X164761904Y-68147331D02*
X165095237Y-68528283D01*
X165095237Y-68528283D02*
X164952380Y-68528283D01*
X164952380Y-68528283D02*
X164857142Y-68575902D01*
X164857142Y-68575902D02*
X164809523Y-68623521D01*
X164809523Y-68623521D02*
X164761904Y-68718759D01*
X164761904Y-68718759D02*
X164761904Y-68956854D01*
X164761904Y-68956854D02*
X164809523Y-69052092D01*
X164809523Y-69052092D02*
X164857142Y-69099712D01*
X164857142Y-69099712D02*
X164952380Y-69147331D01*
X164952380Y-69147331D02*
X165238094Y-69147331D01*
X165238094Y-69147331D02*
X165333332Y-69099712D01*
X165333332Y-69099712D02*
X165380951Y-69052092D01*
X164380951Y-68242569D02*
X164333332Y-68194950D01*
X164333332Y-68194950D02*
X164238094Y-68147331D01*
X164238094Y-68147331D02*
X163999999Y-68147331D01*
X163999999Y-68147331D02*
X163904761Y-68194950D01*
X163904761Y-68194950D02*
X163857142Y-68242569D01*
X163857142Y-68242569D02*
X163809523Y-68337807D01*
X163809523Y-68337807D02*
X163809523Y-68433045D01*
X163809523Y-68433045D02*
X163857142Y-68575902D01*
X163857142Y-68575902D02*
X164428570Y-69147331D01*
X164428570Y-69147331D02*
X163809523Y-69147331D01*
X166761904Y-70709656D02*
X166619047Y-70757275D01*
X166619047Y-70757275D02*
X166380952Y-70757275D01*
X166380952Y-70757275D02*
X166285714Y-70709656D01*
X166285714Y-70709656D02*
X166238095Y-70662036D01*
X166238095Y-70662036D02*
X166190476Y-70566798D01*
X166190476Y-70566798D02*
X166190476Y-70471560D01*
X166190476Y-70471560D02*
X166238095Y-70376322D01*
X166238095Y-70376322D02*
X166285714Y-70328703D01*
X166285714Y-70328703D02*
X166380952Y-70281084D01*
X166380952Y-70281084D02*
X166571428Y-70233465D01*
X166571428Y-70233465D02*
X166666666Y-70185846D01*
X166666666Y-70185846D02*
X166714285Y-70138227D01*
X166714285Y-70138227D02*
X166761904Y-70042989D01*
X166761904Y-70042989D02*
X166761904Y-69947751D01*
X166761904Y-69947751D02*
X166714285Y-69852513D01*
X166714285Y-69852513D02*
X166666666Y-69804894D01*
X166666666Y-69804894D02*
X166571428Y-69757275D01*
X166571428Y-69757275D02*
X166333333Y-69757275D01*
X166333333Y-69757275D02*
X166190476Y-69804894D01*
X165857142Y-69757275D02*
X165238095Y-69757275D01*
X165238095Y-69757275D02*
X165571428Y-70138227D01*
X165571428Y-70138227D02*
X165428571Y-70138227D01*
X165428571Y-70138227D02*
X165333333Y-70185846D01*
X165333333Y-70185846D02*
X165285714Y-70233465D01*
X165285714Y-70233465D02*
X165238095Y-70328703D01*
X165238095Y-70328703D02*
X165238095Y-70566798D01*
X165238095Y-70566798D02*
X165285714Y-70662036D01*
X165285714Y-70662036D02*
X165333333Y-70709656D01*
X165333333Y-70709656D02*
X165428571Y-70757275D01*
X165428571Y-70757275D02*
X165714285Y-70757275D01*
X165714285Y-70757275D02*
X165809523Y-70709656D01*
X165809523Y-70709656D02*
X165857142Y-70662036D01*
X169428570Y-72319600D02*
X169285713Y-72367219D01*
X169285713Y-72367219D02*
X169047618Y-72367219D01*
X169047618Y-72367219D02*
X168952380Y-72319600D01*
X168952380Y-72319600D02*
X168904761Y-72271980D01*
X168904761Y-72271980D02*
X168857142Y-72176742D01*
X168857142Y-72176742D02*
X168857142Y-72081504D01*
X168857142Y-72081504D02*
X168904761Y-71986266D01*
X168904761Y-71986266D02*
X168952380Y-71938647D01*
X168952380Y-71938647D02*
X169047618Y-71891028D01*
X169047618Y-71891028D02*
X169238094Y-71843409D01*
X169238094Y-71843409D02*
X169333332Y-71795790D01*
X169333332Y-71795790D02*
X169380951Y-71748171D01*
X169380951Y-71748171D02*
X169428570Y-71652933D01*
X169428570Y-71652933D02*
X169428570Y-71557695D01*
X169428570Y-71557695D02*
X169380951Y-71462457D01*
X169380951Y-71462457D02*
X169333332Y-71414838D01*
X169333332Y-71414838D02*
X169238094Y-71367219D01*
X169238094Y-71367219D02*
X168999999Y-71367219D01*
X168999999Y-71367219D02*
X168857142Y-71414838D01*
X167999999Y-71700552D02*
X167999999Y-72367219D01*
X168428570Y-71700552D02*
X168428570Y-72224361D01*
X168428570Y-72224361D02*
X168380951Y-72319600D01*
X168380951Y-72319600D02*
X168285713Y-72367219D01*
X168285713Y-72367219D02*
X168142856Y-72367219D01*
X168142856Y-72367219D02*
X168047618Y-72319600D01*
X168047618Y-72319600D02*
X167999999Y-72271980D01*
X167523808Y-71700552D02*
X167523808Y-72700552D01*
X167523808Y-71748171D02*
X167428570Y-71700552D01*
X167428570Y-71700552D02*
X167238094Y-71700552D01*
X167238094Y-71700552D02*
X167142856Y-71748171D01*
X167142856Y-71748171D02*
X167095237Y-71795790D01*
X167095237Y-71795790D02*
X167047618Y-71891028D01*
X167047618Y-71891028D02*
X167047618Y-72176742D01*
X167047618Y-72176742D02*
X167095237Y-72271980D01*
X167095237Y-72271980D02*
X167142856Y-72319600D01*
X167142856Y-72319600D02*
X167238094Y-72367219D01*
X167238094Y-72367219D02*
X167428570Y-72367219D01*
X167428570Y-72367219D02*
X167523808Y-72319600D01*
X166238094Y-72319600D02*
X166333332Y-72367219D01*
X166333332Y-72367219D02*
X166523808Y-72367219D01*
X166523808Y-72367219D02*
X166619046Y-72319600D01*
X166619046Y-72319600D02*
X166666665Y-72224361D01*
X166666665Y-72224361D02*
X166666665Y-71843409D01*
X166666665Y-71843409D02*
X166619046Y-71748171D01*
X166619046Y-71748171D02*
X166523808Y-71700552D01*
X166523808Y-71700552D02*
X166333332Y-71700552D01*
X166333332Y-71700552D02*
X166238094Y-71748171D01*
X166238094Y-71748171D02*
X166190475Y-71843409D01*
X166190475Y-71843409D02*
X166190475Y-71938647D01*
X166190475Y-71938647D02*
X166666665Y-72033885D01*
X165761903Y-72367219D02*
X165761903Y-71700552D01*
X165761903Y-71891028D02*
X165714284Y-71795790D01*
X165714284Y-71795790D02*
X165666665Y-71748171D01*
X165666665Y-71748171D02*
X165571427Y-71700552D01*
X165571427Y-71700552D02*
X165476189Y-71700552D01*
X165142855Y-72367219D02*
X165142855Y-71367219D01*
X165142855Y-71367219D02*
X164809522Y-72081504D01*
X164809522Y-72081504D02*
X164476189Y-71367219D01*
X164476189Y-71367219D02*
X164476189Y-72367219D01*
X163999998Y-72367219D02*
X163999998Y-71700552D01*
X163999998Y-71367219D02*
X164047617Y-71414838D01*
X164047617Y-71414838D02*
X163999998Y-71462457D01*
X163999998Y-71462457D02*
X163952379Y-71414838D01*
X163952379Y-71414838D02*
X163999998Y-71367219D01*
X163999998Y-71367219D02*
X163999998Y-71462457D01*
X163523808Y-71700552D02*
X163523808Y-72367219D01*
X163523808Y-71795790D02*
X163476189Y-71748171D01*
X163476189Y-71748171D02*
X163380951Y-71700552D01*
X163380951Y-71700552D02*
X163238094Y-71700552D01*
X163238094Y-71700552D02*
X163142856Y-71748171D01*
X163142856Y-71748171D02*
X163095237Y-71843409D01*
X163095237Y-71843409D02*
X163095237Y-72367219D01*
X162619046Y-72367219D02*
X162619046Y-71700552D01*
X162619046Y-71367219D02*
X162666665Y-71414838D01*
X162666665Y-71414838D02*
X162619046Y-71462457D01*
X162619046Y-71462457D02*
X162571427Y-71414838D01*
X162571427Y-71414838D02*
X162619046Y-71367219D01*
X162619046Y-71367219D02*
X162619046Y-71462457D01*
M02*
