M48
; DRILL file {KiCad 9.0.6} date 2025-11-16T14:16:43+1100
; FORMAT={-:-/ absolute / metric / decimal}
; #@! TF.CreationDate,2025-11-16T14:16:43+11:00
; #@! TF.GenerationSoftware,Kicad,Pcbnew,9.0.6
; #@! TF.FileFunction,Plated,1,2,PTH
FMAT,2
METRIC
; #@! TA.AperFunction,Plated,PTH,ComponentDrill
T1C0.750
; #@! TA.AperFunction,Plated,PTH,ComponentDrill
T2C0.800
; #@! TA.AperFunction,Plated,PTH,ComponentDrill
T3C0.813
; #@! TA.AperFunction,Plated,PTH,ComponentDrill
T4C0.840
; #@! TA.AperFunction,Plated,PTH,ComponentDrill
T5C1.200
%
G90
G05
T1
X158.5Y-45.42
X158.5Y-55.58
T2
X116.0Y-59.19
X116.0Y-66.81
X116.0Y-72.69
X116.0Y-80.31
X126.8Y-58.88
X126.8Y-66.5
X126.8Y-72.57
X126.8Y-80.19
X137.8Y-58.88
X137.8Y-66.5
X137.8Y-72.88
X137.8Y-80.5
X148.5Y-58.88
X148.5Y-66.5
X148.5Y-72.88
X148.5Y-80.5
X173.0Y-46.88
X173.0Y-54.5
T3
X115.9Y-45.75
X115.9Y-54.25
X121.1Y-45.75
X121.1Y-54.25
X126.9Y-45.75
X126.9Y-54.25
X132.1Y-45.75
X132.1Y-54.25
X137.9Y-45.75
X137.9Y-54.25
X143.1Y-45.75
X143.1Y-54.25
X148.4Y-45.75
X148.4Y-54.25
X153.6Y-45.75
X153.6Y-54.25
T4
X158.38Y-61.0
X158.38Y-63.54
X158.38Y-66.08
X158.38Y-68.62
X158.38Y-71.16
X158.38Y-73.7
X158.38Y-76.24
X158.38Y-78.78
X158.38Y-81.314
X173.62Y-61.0
X173.62Y-63.54
X173.62Y-66.08
X173.62Y-68.62
X173.62Y-71.16
X173.62Y-73.7
X173.62Y-76.24
X173.62Y-78.78
X173.62Y-81.314
T5
X120.42Y-39.0
X122.96Y-39.0
X125.5Y-39.0
X128.04Y-39.0
X142.02Y-39.0
X144.56Y-39.0
X147.1Y-39.0
X149.64Y-39.0
X161.42Y-39.0
X163.96Y-39.0
X166.5Y-39.0
X169.04Y-39.0
M30
