%TF.GenerationSoftware,KiCad,Pcbnew,9.0.6*%
%TF.CreationDate,2025-11-16T14:16:20+11:00*%
%TF.ProjectId,TaikoPcb,5461696b-6f50-4636-922e-6b696361645f,rev?*%
%TF.SameCoordinates,Original*%
%TF.FileFunction,Soldermask,Bot*%
%TF.FilePolarity,Negative*%
%FSLAX46Y46*%
G04 Gerber Fmt 4.6, Leading zero omitted, Abs format (unit mm)*
G04 Created by KiCad (PCBNEW 9.0.6) date 2025-11-16 14:16:20*
%MOMM*%
%LPD*%
G01*
G04 APERTURE LIST*
G04 Aperture macros list*
%AMRoundRect*
0 Rectangle with rounded corners*
0 $1 Rounding radius*
0 $2 $3 $4 $5 $6 $7 $8 $9 X,Y pos of 4 corners*
0 Add a 4 corners polygon primitive as box body*
4,1,4,$2,$3,$4,$5,$6,$7,$8,$9,$2,$3,0*
0 Add four circle primitives for the rounded corners*
1,1,$1+$1,$2,$3*
1,1,$1+$1,$4,$5*
1,1,$1+$1,$6,$7*
1,1,$1+$1,$8,$9*
0 Add four rect primitives between the rounded corners*
20,1,$1+$1,$2,$3,$4,$5,0*
20,1,$1+$1,$4,$5,$6,$7,0*
20,1,$1+$1,$6,$7,$8,$9,0*
20,1,$1+$1,$8,$9,$2,$3,0*%
G04 Aperture macros list end*
%ADD10R,1.320800X1.320800*%
%ADD11C,1.320800*%
%ADD12C,1.600000*%
%ADD13C,3.000000*%
%ADD14C,1.552000*%
%ADD15RoundRect,0.250000X-0.750000X-0.750000X0.750000X-0.750000X0.750000X0.750000X-0.750000X0.750000X0*%
%ADD16C,2.000000*%
%ADD17RoundRect,0.250001X0.499999X-0.499999X0.499999X0.499999X-0.499999X0.499999X-0.499999X-0.499999X0*%
%ADD18C,1.500000*%
G04 APERTURE END LIST*
D10*
%TO.C,U2*%
X121100000Y-45750000D03*
D11*
X115900000Y-45750000D03*
X115900000Y-54249999D03*
X121100000Y-54249999D03*
%TD*%
D12*
%TO.C,R3*%
X126800000Y-58880000D03*
X126800000Y-66500000D03*
%TD*%
D13*
%TO.C,REF\u002A\u002A*%
X121500000Y-79500000D03*
%TD*%
D12*
%TO.C,R5*%
X137800000Y-58880000D03*
X137800000Y-66500000D03*
%TD*%
D14*
%TO.C,U1*%
X158380000Y-61000000D03*
X158380000Y-63540000D03*
X158380000Y-66080000D03*
X158380000Y-68620000D03*
X158380000Y-71160000D03*
X158380000Y-73700000D03*
X158380000Y-76240000D03*
X158380000Y-78780000D03*
X158380000Y-81314000D03*
X173620000Y-81314000D03*
X173620000Y-78780000D03*
X173620000Y-76240000D03*
X173620000Y-73700000D03*
X173620000Y-71160000D03*
X173620000Y-68620000D03*
X173620000Y-66080000D03*
X173620000Y-63540000D03*
X173620000Y-61000000D03*
%TD*%
D10*
%TO.C,U4*%
X143100000Y-45750000D03*
D11*
X137900000Y-45750000D03*
X137900000Y-54249999D03*
X143100000Y-54249999D03*
%TD*%
D12*
%TO.C,R6*%
X137800000Y-72880000D03*
X137800000Y-80500000D03*
%TD*%
D15*
%TO.C,J1*%
X120420000Y-39000000D03*
D16*
X122960000Y-39000000D03*
X125500000Y-39000000D03*
X128040000Y-39000000D03*
%TD*%
D12*
%TO.C,R2*%
X116000000Y-72690000D03*
X116000000Y-80310000D03*
%TD*%
%TO.C,R7*%
X148500000Y-58880000D03*
X148500000Y-66500000D03*
%TD*%
%TO.C,R4*%
X126800000Y-72570000D03*
X126800000Y-80190000D03*
%TD*%
D10*
%TO.C,U3*%
X132100000Y-45750000D03*
D11*
X126900000Y-45750000D03*
X126900000Y-54249999D03*
X132100000Y-54249999D03*
%TD*%
D12*
%TO.C,R9*%
X173000000Y-54500000D03*
X173000000Y-46880000D03*
%TD*%
D15*
%TO.C,J2*%
X142020000Y-39000000D03*
D16*
X144560000Y-39000000D03*
X147100000Y-39000000D03*
X149640000Y-39000000D03*
%TD*%
D17*
%TO.C,C1*%
X158500000Y-55580000D03*
D18*
X158500000Y-45420000D03*
%TD*%
D12*
%TO.C,R8*%
X148500000Y-72880000D03*
X148500000Y-80500000D03*
%TD*%
%TO.C,R1*%
X116000000Y-59190000D03*
X116000000Y-66810000D03*
%TD*%
D15*
%TO.C,J3*%
X161420000Y-39000000D03*
D16*
X163960000Y-39000000D03*
X166500000Y-39000000D03*
X169040000Y-39000000D03*
%TD*%
D10*
%TO.C,U5*%
X153600000Y-45750000D03*
D11*
X148400000Y-45750000D03*
X148400000Y-54249999D03*
X153600000Y-54249999D03*
%TD*%
D13*
%TO.C,REF\u002A\u002A*%
X165500000Y-51000000D03*
%TD*%
%TO.C,REF\u002A\u002A*%
X135000000Y-39000000D03*
%TD*%
M02*
