%TF.GenerationSoftware,KiCad,Pcbnew,9.0.6*%
%TF.CreationDate,2025-11-16T14:41:23+11:00*%
%TF.ProjectId,TaikoPcb,5461696b-6f50-4636-922e-6b696361645f,rev?*%
%TF.SameCoordinates,Original*%
%TF.FileFunction,Copper,L1,Top*%
%TF.FilePolarity,Positive*%
%FSLAX46Y46*%
G04 Gerber Fmt 4.6, Leading zero omitted, Abs format (unit mm)*
G04 Created by KiCad (PCBNEW 9.0.6) date 2025-11-16 14:41:23*
%MOMM*%
%LPD*%
G01*
G04 APERTURE LIST*
G04 Aperture macros list*
%AMRoundRect*
0 Rectangle with rounded corners*
0 $1 Rounding radius*
0 $2 $3 $4 $5 $6 $7 $8 $9 X,Y pos of 4 corners*
0 Add a 4 corners polygon primitive as box body*
4,1,4,$2,$3,$4,$5,$6,$7,$8,$9,$2,$3,0*
0 Add four circle primitives for the rounded corners*
1,1,$1+$1,$2,$3*
1,1,$1+$1,$4,$5*
1,1,$1+$1,$6,$7*
1,1,$1+$1,$8,$9*
0 Add four rect primitives between the rounded corners*
20,1,$1+$1,$2,$3,$4,$5,0*
20,1,$1+$1,$4,$5,$6,$7,0*
20,1,$1+$1,$6,$7,$8,$9,0*
20,1,$1+$1,$8,$9,$2,$3,0*%
G04 Aperture macros list end*
%TA.AperFunction,ComponentPad*%
%ADD10R,1.320800X1.320800*%
%TD*%
%TA.AperFunction,ComponentPad*%
%ADD11C,1.320800*%
%TD*%
%TA.AperFunction,ComponentPad*%
%ADD12C,1.600000*%
%TD*%
%TA.AperFunction,ComponentPad*%
%ADD13C,1.348000*%
%TD*%
%TA.AperFunction,ComponentPad*%
%ADD14RoundRect,0.250000X-0.750000X-0.750000X0.750000X-0.750000X0.750000X0.750000X-0.750000X0.750000X0*%
%TD*%
%TA.AperFunction,ComponentPad*%
%ADD15C,2.000000*%
%TD*%
%TA.AperFunction,ComponentPad*%
%ADD16RoundRect,0.250001X0.499999X-0.499999X0.499999X0.499999X-0.499999X0.499999X-0.499999X-0.499999X0*%
%TD*%
%TA.AperFunction,ComponentPad*%
%ADD17C,1.500000*%
%TD*%
%TA.AperFunction,Conductor*%
%ADD18C,0.500000*%
%TD*%
G04 APERTURE END LIST*
D10*
%TO.P,U2,1,1*%
%TO.N,Net-(J1-Pin_2)*%
X121100000Y-45750000D03*
D11*
%TO.P,U2,2,2*%
%TO.N,Net-(J1-Pin_1)*%
X115900000Y-45750000D03*
%TO.P,U2,3,3*%
%TO.N,Net-(R1-Pad1)*%
X115900000Y-54249999D03*
%TO.P,U2,4,4*%
%TO.N,GND*%
X121100000Y-54249999D03*
%TD*%
D12*
%TO.P,R3,1*%
%TO.N,Net-(R3-Pad1)*%
X126800000Y-58880000D03*
%TO.P,R3,2*%
%TO.N,Net-(U1-GP4)*%
X126800000Y-66500000D03*
%TD*%
%TO.P,R5,1*%
%TO.N,Net-(R5-Pad1)*%
X137800000Y-58880000D03*
%TO.P,R5,2*%
%TO.N,Net-(U1-GP2)*%
X137800000Y-66500000D03*
%TD*%
D13*
%TO.P,U1,1,TX*%
%TO.N,unconnected-(U1-TX-Pad1)*%
X158380000Y-61000000D03*
%TO.P,U1,2,RX*%
%TO.N,unconnected-(U1-RX-Pad2)*%
X158380000Y-63540000D03*
%TO.P,U1,3,GP1*%
%TO.N,Net-(U1-GP1)*%
X158380000Y-66080000D03*
%TO.P,U1,4,GP2*%
%TO.N,Net-(U1-GP2)*%
X158380000Y-68620000D03*
%TO.P,U1,5,GP3*%
%TO.N,unconnected-(U1-GP3-Pad5)*%
X158380000Y-71160000D03*
%TO.P,U1,6,GP4*%
%TO.N,Net-(U1-GP4)*%
X158380000Y-73700000D03*
%TO.P,U1,7,GP5*%
%TO.N,Net-(U1-GP5)*%
X158380000Y-76240000D03*
%TO.P,U1,8,GP6*%
%TO.N,Net-(J3-Pin_4)*%
X158380000Y-78780000D03*
%TO.P,U1,9,GP7*%
%TO.N,Net-(U1-GP7)*%
X158380000Y-81314000D03*
%TO.P,U1,10,GP8*%
%TO.N,unconnected-(U1-GP8-Pad10)*%
X173620000Y-81314000D03*
%TO.P,U1,11,GP9*%
%TO.N,unconnected-(U1-GP9-Pad11)*%
X173620000Y-78780000D03*
%TO.P,U1,12,GP10*%
%TO.N,unconnected-(U1-GP10-Pad12)*%
X173620000Y-76240000D03*
%TO.P,U1,13,GP11*%
%TO.N,unconnected-(U1-GP11-Pad13)*%
X173620000Y-73700000D03*
%TO.P,U1,14,GP12*%
%TO.N,unconnected-(U1-GP12-Pad14)*%
X173620000Y-71160000D03*
%TO.P,U1,15,GP13*%
%TO.N,unconnected-(U1-GP13-Pad15)*%
X173620000Y-68620000D03*
%TO.P,U1,16,3v3*%
%TO.N,unconnected-(U1-3v3-Pad16)*%
X173620000Y-66080000D03*
%TO.P,U1,17,GND*%
%TO.N,GND*%
X173620000Y-63540000D03*
%TO.P,U1,18,5v*%
%TO.N,Net-(J3-Pin_1)*%
X173620000Y-61000000D03*
%TD*%
D10*
%TO.P,U4,1,1*%
%TO.N,Net-(J2-Pin_2)*%
X143100000Y-45750000D03*
D11*
%TO.P,U4,2,2*%
%TO.N,Net-(J2-Pin_1)*%
X137900000Y-45750000D03*
%TO.P,U4,3,3*%
%TO.N,Net-(R5-Pad1)*%
X137900000Y-54249999D03*
%TO.P,U4,4,4*%
%TO.N,GND*%
X143100000Y-54249999D03*
%TD*%
D12*
%TO.P,R6,1*%
%TO.N,Net-(U1-GP2)*%
X137800000Y-72880000D03*
%TO.P,R6,2*%
%TO.N,GND*%
X137800000Y-80500000D03*
%TD*%
D14*
%TO.P,J1,1,Pin_1*%
%TO.N,Net-(J1-Pin_1)*%
X120420000Y-39000000D03*
D15*
%TO.P,J1,2,Pin_2*%
%TO.N,Net-(J1-Pin_2)*%
X122960000Y-39000000D03*
%TO.P,J1,3,Pin_3*%
%TO.N,Net-(J1-Pin_3)*%
X125500000Y-39000000D03*
%TO.P,J1,4,Pin_4*%
%TO.N,Net-(J1-Pin_4)*%
X128040000Y-39000000D03*
%TD*%
D12*
%TO.P,R2,1*%
%TO.N,Net-(U1-GP5)*%
X116000000Y-72690000D03*
%TO.P,R2,2*%
%TO.N,GND*%
X116000000Y-80310000D03*
%TD*%
%TO.P,R7,1*%
%TO.N,Net-(R7-Pad1)*%
X148500000Y-58880000D03*
%TO.P,R7,2*%
%TO.N,Net-(U1-GP1)*%
X148500000Y-66500000D03*
%TD*%
%TO.P,R4,1*%
%TO.N,Net-(U1-GP4)*%
X126800000Y-72570000D03*
%TO.P,R4,2*%
%TO.N,GND*%
X126800000Y-80190000D03*
%TD*%
D10*
%TO.P,U3,1,1*%
%TO.N,Net-(J1-Pin_4)*%
X132100000Y-45750000D03*
D11*
%TO.P,U3,2,2*%
%TO.N,Net-(J1-Pin_3)*%
X126900000Y-45750000D03*
%TO.P,U3,3,3*%
%TO.N,Net-(R3-Pad1)*%
X126900000Y-54249999D03*
%TO.P,U3,4,4*%
%TO.N,GND*%
X132100000Y-54249999D03*
%TD*%
D12*
%TO.P,R9,1*%
%TO.N,Net-(U1-GP7)*%
X173000000Y-54500000D03*
%TO.P,R9,2*%
%TO.N,Net-(J3-Pin_3)*%
X173000000Y-46880000D03*
%TD*%
D14*
%TO.P,J2,1,Pin_1*%
%TO.N,Net-(J2-Pin_1)*%
X142020000Y-39000000D03*
D15*
%TO.P,J2,2,Pin_2*%
%TO.N,Net-(J2-Pin_2)*%
X144560000Y-39000000D03*
%TO.P,J2,3,Pin_3*%
%TO.N,Net-(J2-Pin_3)*%
X147100000Y-39000000D03*
%TO.P,J2,4,Pin_4*%
%TO.N,Net-(J2-Pin_4)*%
X149640000Y-39000000D03*
%TD*%
D16*
%TO.P,C1,1*%
%TO.N,Net-(J3-Pin_1)*%
X158500000Y-55580000D03*
D17*
%TO.P,C1,2*%
%TO.N,GND*%
X158500000Y-45420000D03*
%TD*%
D12*
%TO.P,R8,1*%
%TO.N,Net-(U1-GP1)*%
X148500000Y-72880000D03*
%TO.P,R8,2*%
%TO.N,GND*%
X148500000Y-80500000D03*
%TD*%
%TO.P,R1,1*%
%TO.N,Net-(R1-Pad1)*%
X116000000Y-59190000D03*
%TO.P,R1,2*%
%TO.N,Net-(U1-GP5)*%
X116000000Y-66810000D03*
%TD*%
D14*
%TO.P,J3,1,Pin_1*%
%TO.N,Net-(J3-Pin_1)*%
X161420000Y-39000000D03*
D15*
%TO.P,J3,2,Pin_2*%
%TO.N,GND*%
X163960000Y-39000000D03*
%TO.P,J3,3,Pin_3*%
%TO.N,Net-(J3-Pin_3)*%
X166500000Y-39000000D03*
%TO.P,J3,4,Pin_4*%
%TO.N,Net-(J3-Pin_4)*%
X169040000Y-39000000D03*
%TD*%
D10*
%TO.P,U5,1,1*%
%TO.N,Net-(J2-Pin_4)*%
X153600000Y-45750000D03*
D11*
%TO.P,U5,2,2*%
%TO.N,Net-(J2-Pin_3)*%
X148400000Y-45750000D03*
%TO.P,U5,3,3*%
%TO.N,Net-(R7-Pad1)*%
X148400000Y-54249999D03*
%TO.P,U5,4,4*%
%TO.N,GND*%
X153600000Y-54249999D03*
%TD*%
D18*
%TO.N,GND*%
X161500000Y-58500000D02*
X157500000Y-58500000D01*
X142500000Y-75000000D02*
X140000000Y-75000000D01*
X137800000Y-77200000D02*
X137800000Y-80500000D01*
X151000000Y-75000000D02*
X150000000Y-75000000D01*
X142500000Y-75000000D02*
X150000000Y-75000000D01*
X130000000Y-75000000D02*
X129000000Y-75000000D01*
X173620000Y-63540000D02*
X166540000Y-63540000D01*
X151000000Y-75000000D02*
X152000000Y-74000000D01*
X152000000Y-60000000D02*
X152000000Y-74000000D01*
X118500000Y-75000000D02*
X116000000Y-77500000D01*
X154000000Y-58500000D02*
X153500000Y-58500000D01*
X130000000Y-75000000D02*
X118500000Y-75000000D01*
X153500000Y-58500000D02*
X152000000Y-60000000D01*
X116000000Y-80310000D02*
X116000000Y-80500000D01*
X153600000Y-54249999D02*
X157500000Y-58149999D01*
X140000000Y-75000000D02*
X137800000Y-77200000D01*
X116000000Y-77500000D02*
X116000000Y-80310000D01*
X142500000Y-75000000D02*
X130000000Y-75000000D01*
X129000000Y-75000000D02*
X126800000Y-77200000D01*
X150000000Y-75000000D02*
X148500000Y-76500000D01*
X148500000Y-76500000D02*
X148500000Y-80500000D01*
X126800000Y-77200000D02*
X126800000Y-80190000D01*
X166540000Y-63540000D02*
X161500000Y-58500000D01*
X157500000Y-58149999D02*
X157500000Y-58500000D01*
X157500000Y-58500000D02*
X154000000Y-58500000D01*
%TO.N,Net-(J3-Pin_1)*%
X173620000Y-61000000D02*
X173500000Y-61000000D01*
X173500000Y-61000000D02*
X168080000Y-55580000D01*
X168080000Y-55580000D02*
X158500000Y-55580000D01*
X161420000Y-52660000D02*
X161420000Y-39000000D01*
X158500000Y-55580000D02*
X161420000Y-52660000D01*
%TO.N,Net-(J1-Pin_4)*%
X132100000Y-45600000D02*
X132100000Y-45750000D01*
X128000000Y-41500000D02*
X132100000Y-45600000D01*
X128040000Y-41460000D02*
X128040000Y-39000000D01*
X128040000Y-41460000D02*
X128000000Y-41500000D01*
%TO.N,Net-(J1-Pin_1)*%
X115900000Y-45600000D02*
X120500000Y-41000000D01*
X120500000Y-41000000D02*
X120420000Y-40920000D01*
X120420000Y-40920000D02*
X120420000Y-39000000D01*
X115900000Y-45750000D02*
X115900000Y-45600000D01*
%TO.N,Net-(J1-Pin_2)*%
X122960000Y-43890000D02*
X122960000Y-39000000D01*
X121100000Y-45750000D02*
X122960000Y-43890000D01*
%TO.N,Net-(J1-Pin_3)*%
X125500000Y-44350000D02*
X125500000Y-39000000D01*
X126900000Y-45750000D02*
X125500000Y-44350000D01*
%TO.N,Net-(J2-Pin_3)*%
X148400000Y-45750000D02*
X147100000Y-44450000D01*
X147100000Y-44450000D02*
X147100000Y-39000000D01*
%TO.N,Net-(J2-Pin_1)*%
X142020000Y-41480000D02*
X142000000Y-41460000D01*
X137900000Y-45750000D02*
X137900000Y-45600000D01*
X142020000Y-40980000D02*
X142020000Y-39000000D01*
X142000000Y-41000000D02*
X142020000Y-40980000D01*
X137900000Y-45600000D02*
X142020000Y-41480000D01*
X142000000Y-41460000D02*
X142000000Y-41000000D01*
%TO.N,Net-(J2-Pin_4)*%
X153600000Y-45100000D02*
X149640000Y-41140000D01*
X149640000Y-41140000D02*
X149640000Y-39000000D01*
X153600000Y-45750000D02*
X153600000Y-45100000D01*
%TO.N,Net-(J2-Pin_2)*%
X144560000Y-43940000D02*
X144560000Y-39000000D01*
X143100000Y-45750000D02*
X143100000Y-45400000D01*
X143100000Y-45400000D02*
X144560000Y-43940000D01*
%TO.N,Net-(J3-Pin_3)*%
X168000000Y-47000000D02*
X166500000Y-45500000D01*
X173000000Y-46880000D02*
X173000000Y-47000000D01*
X173000000Y-47000000D02*
X168000000Y-47000000D01*
X166500000Y-45500000D02*
X166500000Y-39000000D01*
%TO.N,Net-(R1-Pad1)*%
X115900000Y-59090000D02*
X116000000Y-59190000D01*
X115900000Y-54249999D02*
X115900000Y-59090000D01*
%TO.N,Net-(U1-GP5)*%
X116000000Y-66810000D02*
X116000000Y-72690000D01*
%TO.N,Net-(R3-Pad1)*%
X126900000Y-54249999D02*
X126900000Y-58780000D01*
X126900000Y-58780000D02*
X126800000Y-58880000D01*
%TO.N,Net-(U1-GP4)*%
X126800000Y-66500000D02*
X126800000Y-72570000D01*
%TO.N,Net-(U1-GP2)*%
X137800000Y-66500000D02*
X137800000Y-72880000D01*
%TO.N,Net-(R5-Pad1)*%
X137880000Y-58880000D02*
X137900000Y-58900000D01*
X137800000Y-58880000D02*
X137880000Y-58880000D01*
X137900000Y-58900000D02*
X137900000Y-54249999D01*
%TO.N,Net-(R7-Pad1)*%
X148400000Y-58780000D02*
X148500000Y-58880000D01*
X148400000Y-54249999D02*
X148400000Y-58780000D01*
%TO.N,Net-(U1-GP1)*%
X148500000Y-66500000D02*
X148500000Y-72880000D01*
%TD*%
M02*
